<?xml version="1.0" encoding="UTF-8" standalone="no"?>
<svg
   height="21.15000mm"
   version="1.0"
   viewBox="0 0 478 80"
   width="126.37125mm"
   id="svg2504"
   sodipodi:version="0.32"
   inkscape:version="1.4.3 (0d15f75, 2025-12-25)"
   sodipodi:docname="Ethylacetaat vorming.svg"
   inkscape:output_extension="org.inkscape.output.svg.inkscape"
   xmlns:inkscape="http://www.inkscape.org/namespaces/inkscape"
   xmlns:sodipodi="http://sodipodi.sourceforge.net/DTD/sodipodi-0.dtd"
   xmlns="http://www.w3.org/2000/svg"
   xmlns:svg="http://www.w3.org/2000/svg"
   xmlns:rdf="http://www.w3.org/1999/02/22-rdf-syntax-ns#"
   xmlns:cc="http://creativecommons.org/ns#"
   xmlns:dc="http://purl.org/dc/elements/1.1/"
   xmlns:cdml="http://www.freesoftware.fsf.org/bkchem/cdml">
  <metadata
     id="metadata2581">
    <rdf:RDF>
      <cc:Work
         rdf:about="">
        <dc:format>image/svg+xml</dc:format>
        <dc:type
           rdf:resource="http://purl.org/dc/dcmitype/StillImage" />
      </cc:Work>
    </rdf:RDF>
  </metadata>
  <defs
     id="defs2579">
    <inkscape:perspective
       sodipodi:type="inkscape:persp3d"
       inkscape:vp_x="0 : 37.47047 : 1"
       inkscape:vp_y="0 : 1000 : 0"
       inkscape:vp_z="447.77213 : 37.47047 : 1"
       inkscape:persp3d-origin="223.88606 : 24.980314 : 1"
       id="perspective2583" />
  </defs>
  <sodipodi:namedview
     inkscape:window-height="1129"
     inkscape:window-width="1920"
     inkscape:pageshadow="2"
     inkscape:pageopacity="0.0"
     guidetolerance="10.0"
     gridtolerance="10.0"
     objecttolerance="10.0"
     borderopacity="1.0"
     bordercolor="#666666"
     pagecolor="#ffffff"
     id="base"
     showgrid="false"
     inkscape:zoom="2.4298074"
     inkscape:cx="225.73806"
     inkscape:cy="-2.6751091"
     inkscape:window-x="-8"
     inkscape:window-y="-8"
     inkscape:current-layer="svg2504"
     inkscape:showpageshadow="2"
     inkscape:pagecheckerboard="0"
     inkscape:deskcolor="#d1d1d1"
     inkscape:document-units="mm"
     inkscape:window-maximized="1" />
  <path
     style="font-size:15px;stroke:#000000;stroke-width:1;stroke-linecap:round;font-family:Helvetica"
     d="M 12,59 L 34.93,45.760002"
     id="line2510" />
  <path
     style="font-size:15px;stroke:#000000;stroke-width:1;stroke-linecap:round;font-family:Helvetica"
     d="M 34.93,45.760002 L 50,54.459999"
     id="line2514" />
  <path
     style="font-size:15px;font-family:helvetica;fill:#1a1a1a;fill-opacity:1;stroke-linecap:round"
     d="m 52.025101,56.770508 c -10e-7,-1.78222 0.478514,-3.177482 1.435547,-4.185791 0.957028,-1.008291 2.192378,-1.51244 3.706054,-1.512451 0.991204,1.1e-5 1.884758,0.236827 2.680664,0.710449 0.795889,0.473642 1.402578,1.134042 1.820069,1.981201 0.417469,0.847175 0.626209,1.807868 0.62622,2.88208 -1.1e-5,1.088872 -0.219737,2.062992 -0.659179,2.922363 -0.439463,0.859377 -1.062021,1.510011 -1.867676,1.951905 -0.805672,0.441894 -1.674812,0.662841 -2.607422,0.662841 -1.010747,0 -1.914066,-0.24414 -2.709961,-0.732421 C 53.653516,60.962403 53.05049,60.2959 52.640335,59.451172 52.230178,58.606449 52.0251,57.712895 52.025101,56.770508 Z m 1.464843,0.02197 c -2e-6,1.29395 0.347898,2.313236 1.043702,3.057862 0.695796,0.74463 1.568598,1.116944 2.618408,1.116943 1.069329,10e-7 1.949455,-0.375975 2.640381,-1.12793 0.690908,-0.75195 1.036367,-1.818843 1.036377,-3.200683 -10e-6,-0.874017 -0.147715,-1.636956 -0.443116,-2.288818 -0.295419,-0.651848 -0.727547,-1.157218 -1.296386,-1.516114 -0.568855,-0.358877 -1.207282,-0.53832 -1.915284,-0.53833 -1.005864,10e-6 -1.871341,0.345468 -2.596435,1.036377 -0.7251,0.690926 -1.087649,1.844489 -1.087647,3.460693 z"
     id="text2516"
     sodipodi:nodetypes="ssccccssssssssssscccss" />
  <path
     style="font-size:15px;stroke:#000000;stroke-width:1;stroke-linecap:round;font-family:Helvetica"
     d="M 137,55.379997 L 151.92999,46.760002"
     id="line2520" />
  <path
     style="font-size:15px;stroke:#000000;stroke-width:1;stroke-linecap:round;font-family:Helvetica"
     d="M 151.92999,46.760002 L 174.86,60"
     id="line2524" />
  <path
     style="font-size:15px;stroke:#000000;stroke-width:1;stroke-linecap:round;font-family:Helvetica"
     d="M 149.92999,46.760002 L 149.92999,28"
     id="line2528" />
  <path
     style="font-size:15px;stroke:#000000;stroke-width:1;stroke-linecap:round;font-family:Helvetica"
     d="M 153.92999,46.760002 L 153.92999,28"
     id="line2530" />
  <path
     style="font-size:15px;fill:#0585b7;stroke-linecap:round;font-family:helvetica;fill-opacity:1"
     d="M 112.50117,63 L 112.50117,52.262695 L 113.92207,52.262695 L 113.92207,56.671875 L 119.50313,56.671875 L 119.50313,52.262695 L 120.92403,52.262695 L 120.92403,63 L 119.50313,63 L 119.50313,57.938965 L 113.92207,57.938965 L 113.92207,63 L 112.50117,63 z M 122.86494,57.770508 C 122.86494,55.988288 123.34346,54.593026 124.30049,53.584717 C 125.25752,52.576426 126.49287,52.072277 128.00655,52.072266 C 128.99775,52.072277 129.8913,52.309093 130.68721,52.782715 C 131.4831,53.256357 132.08979,53.916757 132.50728,54.763916 C 132.92475,55.611091 133.13349,56.571784 133.1335,57.645996 C 133.13349,58.734868 132.91376,59.708988 132.47432,60.568359 C 132.03486,61.427736 131.4123,62.07837 130.60664,62.520264 C 129.80097,62.962158 128.93183,63.183105 127.99922,63.183105 C 126.98847,63.183105 126.08516,62.938965 125.28926,62.450684 C 124.49336,61.962403 123.89033,61.2959 123.48018,60.451172 C 123.07002,59.606449 122.86494,58.712895 122.86494,57.770508 L 122.86494,57.770508 z M 124.32979,57.79248 C 124.32979,59.08643 124.67769,60.105716 125.37349,60.850342 C 126.06929,61.594972 126.94209,61.967286 127.9919,61.967285 C 129.06123,61.967286 129.94135,61.59131 130.63228,60.839355 C 131.32319,60.087405 131.66865,59.020512 131.66866,57.638672 C 131.66865,56.764655 131.52094,56.001716 131.22554,55.349854 C 130.93012,54.698006 130.49799,54.192636 129.92915,53.83374 C 129.3603,53.474863 128.72187,53.29542 128.01387,53.29541 C 127.00801,53.29542 126.14253,53.640878 125.41743,54.331787 C 124.69233,55.022713 124.32979,56.176276 124.32979,57.79248 L 124.32979,57.79248 z"
     id="text2532" />
  <path
     style="font-size:15px;fill:#000000;stroke-linecap:round;font-family:helvetica"
     d="M 146.0251,18.050507 C 146.0251,16.268287 146.50362,14.873025 147.46065,13.864716 C 148.41768,12.856425 149.65303,12.352275 151.1667,12.352264 C 152.15791,12.352275 153.05146,12.589092 153.84737,13.062714 C 154.64326,13.536356 155.24994,14.196756 155.66743,15.043915 C 156.0849,15.89109 156.29364,16.851783 156.29366,17.925995 C 156.29364,19.014866 156.07392,19.988986 155.63448,20.848358 C 155.19501,21.707735 154.57245,22.358369 153.7668,22.800262 C 152.96113,23.242157 152.09199,23.463104 151.15938,23.463104 C 150.14863,23.463104 149.24531,23.218964 148.44942,22.730682 C 147.65352,22.242402 147.05049,21.575899 146.64034,20.731171 C 146.23018,19.886447 146.0251,18.992894 146.0251,18.050507 L 146.0251,18.050507 z M 147.48994,18.072479 C 147.48994,19.366428 147.83784,20.385715 148.53365,21.130341 C 149.22944,21.874971 150.10224,22.247285 151.15205,22.247284 C 152.22138,22.247285 153.10151,21.871309 153.79243,21.119354 C 154.48334,20.367404 154.8288,19.300511 154.82881,17.918671 C 154.8288,17.044653 154.6811,16.281715 154.3857,15.629852 C 154.09028,14.978005 153.65815,14.472635 153.08931,14.113739 C 152.52045,13.754862 151.88203,13.575419 151.17403,13.575409 C 150.16816,13.575419 149.30268,13.920877 148.57759,14.611786 C 147.85249,15.302712 147.48994,16.456275 147.48994,18.072479 L 147.48994,18.072479 z"
     id="text2534" />
  <path
     style="font-size:15px;stroke:#000000;stroke-width:1;stroke-linecap:round;font-family:Helvetica"
     d="M 322.92999,46.760002 L 338,55.459999"
     id="line2538" />
  <path
     style="font-size:15px;stroke:#000000;stroke-width:1;stroke-linecap:round;font-family:Helvetica"
     d="M 366.79001,46.760002 L 366.79001,28"
     id="line2542" />
  <path
     style="font-size:15px;stroke:#000000;stroke-width:1;stroke-linecap:round;font-family:Helvetica"
     d="M 370.79001,46.760002 L 370.79001,28"
     id="line2544" />
  <path
     style="font-size:15px;stroke:#000000;stroke-width:1;stroke-linecap:round;font-family:Helvetica"
     d="M 354,55.300003 L 368.79001,46.760002"
     id="line2548" />
  <path
     style="font-size:15px;stroke:#000000;stroke-width:1;stroke-linecap:round;font-family:Helvetica"
     d="M 300,60 L 322.92999,46.760002"
     id="line2552" />
  <path
     style="font-size:15px;stroke:#000000;stroke-width:1;stroke-linecap:round;font-family:Helvetica"
     d="M 368.79001,46.760002 L 391.72,60"
     id="line2556" />
  <path
     style="font-size:15px;fill:#000000;stroke-linecap:round;font-family:helvetica"
     d="M 363.02509,18.050507 C 363.02508,16.268287 363.5036,14.873025 364.46063,13.864716 C 365.41766,12.856425 366.65301,12.352275 368.16669,12.352264 C 369.15789,12.352275 370.05144,12.589092 370.84735,13.062714 C 371.64324,13.536356 372.24993,14.196756 372.66742,15.043915 C 373.08489,15.89109 373.29363,16.851783 373.29364,17.925995 C 373.29363,19.014866 373.0739,19.988986 372.63446,20.848358 C 372.195,21.707735 371.57244,22.358369 370.76678,22.800262 C 369.96111,23.242157 369.09197,23.463104 368.15936,23.463104 C 367.14862,23.463104 366.2453,23.218964 365.4494,22.730682 C 364.6535,22.242402 364.05047,21.575899 363.64032,20.731171 C 363.23016,19.886447 363.02508,18.992894 363.02509,18.050507 L 363.02509,18.050507 z M 364.48993,18.072479 C 364.48993,19.366428 364.83783,20.385715 365.53363,21.130341 C 366.22943,21.874971 367.10223,22.247285 368.15204,22.247284 C 369.22137,22.247285 370.10149,21.871309 370.79242,21.119354 C 371.48333,20.367404 371.82879,19.300511 371.8288,17.918671 C 371.82879,17.044653 371.68108,16.281715 371.38568,15.629852 C 371.09026,14.978005 370.65813,14.472635 370.08929,14.113739 C 369.52044,13.754862 368.88201,13.575419 368.17401,13.575409 C 367.16815,13.575419 366.30267,13.920877 365.57758,14.611786 C 364.85248,15.302712 364.48993,16.456275 364.48993,18.072479 L 364.48993,18.072479 z"
     id="text2558" />
  <path
     style="font-size:15px;fill:#000000;stroke-linecap:round;font-family:helvetica"
     d="M 340.02509,57.770508 C 340.02508,55.988288 340.5036,54.593026 341.46063,53.584717 C 342.41766,52.576426 343.65301,52.072277 345.16669,52.072266 C 346.15789,52.072277 347.05144,52.309093 347.84735,52.782715 C 348.64324,53.256357 349.24993,53.916757 349.66742,54.763916 C 350.08489,55.611091 350.29363,56.571784 350.29364,57.645996 C 350.29363,58.734868 350.0739,59.708988 349.63446,60.568359 C 349.195,61.427736 348.57244,62.07837 347.76678,62.520264 C 346.96111,62.962158 346.09197,63.183105 345.15936,63.183105 C 344.14862,63.183105 343.2453,62.938965 342.4494,62.450684 C 341.6535,61.962403 341.05047,61.2959 340.64032,60.451172 C 340.23016,59.606449 340.02508,58.712895 340.02509,57.770508 L 340.02509,57.770508 z M 341.48993,57.79248 C 341.48993,59.08643 341.83783,60.105716 342.53363,60.850342 C 343.22943,61.594972 344.10223,61.967286 345.15204,61.967285 C 346.22137,61.967286 347.10149,61.59131 347.79242,60.839355 C 348.48333,60.087405 348.82879,59.020512 348.8288,57.638672 C 348.82879,56.764655 348.68108,56.001716 348.38568,55.349854 C 348.09026,54.698006 347.65813,54.192636 347.08929,53.83374 C 346.52044,53.474863 345.88201,53.29542 345.17401,53.29541 C 344.16815,53.29542 343.30267,53.640878 342.57758,54.331787 C 341.85248,55.022713 341.48993,56.176276 341.48993,57.79248 L 341.48993,57.79248 z"
     id="text2560" />
  <path
     style="font-size:17.5px;fill:#000000;stroke-linecap:round;font-family:helvetica"
     d="M 90.383545,42.974854 L 90.383545,39.539795 L 86.974121,39.539795 L 86.974121,38.104248 L 90.383545,38.104248 L 90.383545,34.694824 L 91.836182,34.694824 L 91.836182,38.104248 L 95.245605,38.104248 L 95.245605,39.539795 L 91.836182,39.539795 L 91.836182,42.974854 L 90.383545,42.974854 z"
     id="text2562" />
  <path
     style="font-size:17.5px;fill:#000000;stroke-linecap:round;font-family:helvetica"
     d="M 411.38354,42.974854 L 411.38354,39.539795 L 407.97412,39.539795 L 407.97412,38.104248 L 411.38354,38.104248 L 411.38354,34.694824 L 412.83618,34.694824 L 412.83618,38.104248 L 416.24561,38.104248 L 416.24561,39.539795 L 412.83618,39.539795 L 412.83618,42.974854 L 411.38354,42.974854 z"
     id="text2564" />
  <path
     transform="translate(-71,-57)"
     style="font-size:15px;fill:none;stroke:#000000;stroke-width:1;stroke-linecap:round;font-family:Helvetica"
     d="M 271,96.5 L 338.52,96.5"
     id="polyline2566" />
  <path
     transform="translate(-71,-57)"
     style="font-size:15px;fill:#000000;fill-rule:evenodd;stroke:#000000;stroke-width:1;stroke-linecap:round;font-family:Helvetica"
     d="M 346.52,96.5 L 336.52,93.5 L 338.52,96.5 L 336.52,99.5 L 346.52,96.5 z"
     id="polygon2568" />
  <path
     style="font-size:15px;font-family:helvetica;fill:#0585b7;fill-opacity:1;stroke-linecap:round"
     d="M 439.20117,44 V 33.262695 h 1.4209 v 4.40918 h 5.58105 v -4.40918 h 1.4209 V 44 h -1.4209 v -5.061035 h -5.58105 V 44 Z m 15.27639,2.988635 v 0.950317 h -5.32288 c -0.007,-0.238037 0.0311,-0.466918 0.11536,-0.686646 0.13549,-0.362547 0.35247,-0.719603 0.65094,-1.071166 0.29846,-0.351561 0.72967,-0.758055 1.29364,-1.219483 0.87524,-0.71777 1.46667,-1.286312 1.77429,-1.705627 0.30761,-0.419307 0.46142,-0.81573 0.46142,-1.18927 0,-0.39184 -0.14008,-0.722345 -0.42022,-0.991516 -0.28016,-0.269158 -0.64545,-0.403741 -1.09589,-0.403748 -0.47608,7e-6 -0.85693,0.142829 -1.14258,0.428467 -0.28564,0.285651 -0.4303,0.681158 -0.43396,1.186523 l -1.01623,-0.10437 c 0.0696,-0.75805 0.33142,-1.335747 0.78552,-1.733093 0.4541,-0.397331 1.06384,-0.596 1.82922,-0.596009 0.7727,9e-6 1.38428,0.214242 1.83472,0.642701 0.45043,0.428474 0.67565,0.959479 0.67566,1.593017 -10e-6,0.322271 -0.0659,0.639044 -0.19775,0.950318 -0.13185,0.311284 -0.35066,0.639042 -0.65644,0.983276 -0.30579,0.344242 -0.81391,0.816654 -1.52435,1.417236 -0.59326,0.498049 -0.97412,0.835878 -1.14258,1.013489 -0.16846,0.177614 -0.30762,0.356141 -0.41748,0.535584 z m 1.34959,-8.218127 c 0,-1.78222 0.47851,-3.177482 1.43555,-4.185791 0.95702,-1.008291 2.19237,-1.51244 3.70605,-1.512451 0.9912,1.1e-5 1.88476,0.236827 2.68066,0.710449 0.79589,0.473642 1.40258,1.134042 1.82007,1.981201 0.41747,0.847175 0.62621,1.807868 0.62622,2.88208 -1e-5,1.088872 -0.21973,2.062992 -0.65918,2.922363 -0.43946,0.859377 -1.06202,1.510011 -1.86767,1.951905 -0.80567,0.441894 -1.67481,0.662841 -2.60742,0.662841 -1.01075,0 -1.91407,-0.24414 -2.70997,-0.732421 -0.7959,-0.488281 -1.39892,-1.154784 -1.80908,-1.999512 -0.41015,-0.844723 -0.61523,-1.738277 -0.61523,-2.680664 z m 1.46484,0.02197 c 0,1.29395 0.3479,2.313236 1.0437,3.057862 0.6958,0.74463 1.5686,1.116944 2.61841,1.116943 1.06933,10e-7 1.94946,-0.375975 2.64038,-1.12793 0.69091,-0.75195 1.03637,-1.818843 1.03638,-3.200683 -10e-6,-0.874017 -0.14772,-1.636956 -0.44312,-2.288818 -0.29541,-0.651848 -0.72754,-1.157218 -1.29638,-1.516114 -0.56886,-0.358877 -1.20728,-0.53832 -1.91529,-0.53833 -1.00586,10e-6 -1.87134,0.345468 -2.59643,1.036377 -0.7251,0.690926 -1.08765,1.844489 -1.08765,3.460693 z"
     id="text2574"
     sodipodi:nodetypes="cccccccccccccccccscsssssccsssssscsccssssssssssssssssssssss" />
  <cdml:cdml
     version="0.15">
    <cdml:info>
      <cdml:author_program
         version="0.13.0">BKchem</cdml:author_program>
    </cdml:info>
    <cdml:paper
       crop_margin="10"
       crop_svg="1"
       orientation="portrait"
       replace_minus="0"
       type="A4"
       use_real_minus="0" />
    <cdml:viewport
       viewport="0.000000 0.000000 640.000000 480.000000" />
    <cdml:standard
       area_color=""
       font_family="helvetica"
       font_size="12"
       line_color="#000"
       line_width="1.0px"
       paper_crop_margin="10"
       paper_crop_svg="1"
       paper_orientation="portrait"
       paper_type="A4">
      <cdml:bond
         double-ratio="0.75"
         length="0.7cm"
         wedge-width="5.0px"
         width="6.0px" />
      <cdml:arrow
         length="1.6cm" />
      <cdml:atom
         show_hydrogens="0" />
    </cdml:standard>
    <cdml:molecule
       id="molecule79030"
       name="">
      <cdml:atom
         id="atom73823"
         name="C"
         valency="4">
        <cdml:point
           x="2.194cm"
           y="3.067cm" />
      </cdml:atom>
      <cdml:atom
         id="atom58211"
         name="C"
         valency="4">
        <cdml:point
           x="2.801cm"
           y="2.717cm" />
      </cdml:atom>
      <cdml:atom
         hydrogens="on"
         id="atom46202"
         name="O"
         pos="center-first"
         valency="2">
        <cdml:point
           x="3.407cm"
           y="3.067cm" />
      </cdml:atom>
      <cdml:bond
         double_ratio="0.75"
         end="atom58211"
         id="bond33998"
         line_width="1.0"
         start="atom73823"
         type="n1" />
      <cdml:bond
         double_ratio="0.75"
         end="atom46202"
         id="bond32215"
         line_width="1.0"
         start="atom58211"
         type="n1" />
    </cdml:molecule>
    <cdml:molecule
       id="molecule44112"
       name="">
      <cdml:atom
         id="atom53661"
         name="C"
         valency="4">
        <cdml:point
           x="5.894cm"
           y="2.743cm" />
      </cdml:atom>
      <cdml:atom
         id="atom23475"
         name="C"
         valency="4">
        <cdml:point
           x="6.500cm"
           y="3.093cm" />
      </cdml:atom>
      <cdml:atom
         hydrogens="on"
         id="atom69708"
         name="O"
         pos="center-last"
         valency="2">
        <cdml:point
           x="5.288cm"
           y="3.093cm" />
      </cdml:atom>
      <cdml:atom
         id="atom9851"
         name="O"
         pos="center-first"
         valency="2">
        <cdml:point
           x="5.894cm"
           y="2.043cm" />
      </cdml:atom>
      <cdml:bond
         double_ratio="0.75"
         end="atom53661"
         id="bond34426"
         line_width="1.0"
         start="atom69708"
         type="n1" />
      <cdml:bond
         double_ratio="0.75"
         end="atom23475"
         id="bond11925"
         line_width="1.0"
         start="atom53661"
         type="n1" />
      <cdml:bond
         bond_width="6.0"
         center="yes"
         double_ratio="0.75"
         end="atom9851"
         id="bond99318"
         line_width="1.0"
         start="atom53661"
         type="n2" />
    </cdml:molecule>
    <cdml:molecule
       id="molecule97885"
       name="">
      <cdml:atom
         id="atom91942"
         name="C"
         valency="4">
        <cdml:point
           x="9.808cm"
           y="3.093cm" />
      </cdml:atom>
      <cdml:atom
         id="atom76711"
         name="C"
         valency="4">
        <cdml:point
           x="10.415cm"
           y="2.743cm" />
      </cdml:atom>
      <cdml:atom
         id="atom92402"
         name="C"
         valency="4">
        <cdml:point
           x="11.627cm"
           y="2.743cm" />
      </cdml:atom>
      <cdml:atom
         id="atom10613"
         name="C"
         valency="4">
        <cdml:point
           x="12.233cm"
           y="3.093cm" />
      </cdml:atom>
      <cdml:atom
         id="atom71724"
         name="O"
         pos="center-first"
         valency="2">
        <cdml:point
           x="11.627cm"
           y="2.043cm" />
      </cdml:atom>
      <cdml:atom
         id="atom65924"
         name="O"
         pos="center-first"
         valency="2">
        <cdml:point
           x="11.021cm"
           y="3.093cm" />
      </cdml:atom>
      <cdml:bond
         double_ratio="0.75"
         end="atom65924"
         id="bond23850"
         line_width="1.0"
         start="atom76711"
         type="n1" />
      <cdml:bond
         bond_width="6.0"
         center="yes"
         double_ratio="0.75"
         end="atom71724"
         id="bond31701"
         line_width="1.0"
         start="atom92402"
         type="n2" />
      <cdml:bond
         double_ratio="0.75"
         end="atom92402"
         id="bond20947"
         line_width="1.0"
         start="atom65924"
         type="n1" />
      <cdml:bond
         double_ratio="0.75"
         end="atom76711"
         id="bond47904"
         line_width="1.0"
         start="atom91942"
         type="n1" />
      <cdml:bond
         double_ratio="0.75"
         end="atom10613"
         id="bond26095"
         line_width="1.0"
         start="atom92402"
         type="n1" />
    </cdml:molecule>
    <cdml:plus
       background-color=""
       font_size="14"
       id="plus4676">
      <cdml:point
         x="4.309cm"
         y="2.551cm" />
    </cdml:plus>
    <cdml:plus
       background-color=""
       font_size="14"
       id="plus2808">
      <cdml:point
         x="12.796cm"
         y="2.551cm" />
    </cdml:plus>
    <cdml:arrow
       color="#000"
       end="yes"
       id="arrow66226"
       shape="(8, 10, 3)"
       spline="no"
       start="no"
       type="normal"
       width="1.0">
      <cdml:point
         x="7.165cm"
         y="2.551cm" />
      <cdml:point
         x="9.161cm"
         y="2.551cm" />
    </cdml:arrow>
    <cdml:text
       id="text80239">
      <cdml:point
         x="7.482cm"
         y="2.194cm" />
      <cdml:ftext>Kat.(H<cdml:sup>+</cdml:sup>


)</cdml:ftext>
    </cdml:text>
    <cdml:text
       id="text13300">
      <cdml:point
         x="13.562cm"
         y="2.551cm" />
      <cdml:ftext>H<cdml:sub>2</cdml:sub>


O</cdml:ftext>
    </cdml:text>
  </cdml:cdml>
  <text
     xml:space="preserve"
     style="font-style:normal;font-variant:normal;font-weight:bold;font-stretch:normal;font-size:12.0095px;font-family:Arial;-inkscape-font-specification:'Arial Bold';text-align:center;writing-mode:lr-tb;direction:ltr;text-anchor:middle;fill:#6a9ece;stroke-width:5.00394"
     x="236.63031"
     y="32.764824"
     id="text1"><tspan
       sodipodi:role="line"
       id="tspan1"
       style="font-style:normal;font-variant:normal;font-weight:normal;font-stretch:normal;font-size:12.0095px;font-family:Arial;-inkscape-font-specification:Arial;fill:#1a1a1a;stroke-width:5.00394"
       x="236.63031"
       y="32.764824">Condensatie</tspan></text>
  <path
     d="M 64.215606,61.808702 V 51.071397 h 1.420899 v 4.40918 h 5.581054 v -4.40918 h 1.420899 v 10.737305 h -1.420899 v -5.061035 h -5.581054 v 5.061035 z"
     style="font-size:15px;font-family:helvetica;fill:#0585b7;fill-opacity:1;stroke-linecap:round"
     id="path1" />
</svg>
