<?xml version="1.0" encoding="UTF-8"?>
<svg xmlns="http://www.w3.org/2000/svg" xmlns:xlink="http://www.w3.org/1999/xlink" width="411" height="282" viewBox="0 0 411 282">
<defs>
<g>
<g id="glyph-0-0">
<path d="M 7.765625 0 L 7.765625 -59 L 41.734375 -59 L 41.734375 0 Z M 11.984375 -4.21875 L 37.515625 -4.21875 L 37.515625 -54.796875 L 11.984375 -54.796875 Z M 11.984375 -4.21875 "/>
</g>
<g id="glyph-0-1">
<path d="M 33.296875 -53.296875 C 26.960938 -53.296875 21.976562 -51.175781 18.34375 -46.9375 C 14.707031 -42.695312 12.890625 -36.882812 12.890625 -29.5 C 12.890625 -22.175781 14.582031 -16.378906 17.96875 -12.109375 C 21.363281 -7.835938 26.445312 -5.703125 33.21875 -5.703125 C 35.8125 -5.703125 38.265625 -5.921875 40.578125 -6.359375 C 42.890625 -6.804688 45.148438 -7.359375 47.359375 -8.015625 L 47.359375 -1.5625 C 45.148438 -0.738281 42.875 -0.132812 40.53125 0.25 C 38.1875 0.632812 35.390625 0.828125 32.140625 0.828125 C 26.140625 0.828125 21.128906 -0.410156 17.109375 -2.890625 C 13.085938 -5.367188 10.070312 -8.894531 8.0625 -13.46875 C 6.050781 -18.039062 5.046875 -23.410156 5.046875 -29.578125 C 5.046875 -35.535156 6.128906 -40.785156 8.296875 -45.328125 C 10.472656 -49.867188 13.679688 -53.421875 17.921875 -55.984375 C 22.171875 -58.546875 27.328125 -59.828125 33.390625 -59.828125 C 39.609375 -59.828125 45.035156 -58.671875 49.671875 -56.359375 L 46.6875 -50.078125 C 44.875 -50.898438 42.847656 -51.640625 40.609375 -52.296875 C 38.378906 -52.960938 35.941406 -53.296875 33.296875 -53.296875 Z M 33.296875 -53.296875 "/>
</g>
<g id="glyph-0-2">
<path d="M 15.453125 0 L 8.015625 0 L 8.015625 -59 L 40.984375 -59 L 40.984375 -52.484375 L 15.453125 -52.484375 L 15.453125 -31.5625 L 39.421875 -31.5625 L 39.421875 -25.046875 L 15.453125 -25.046875 Z M 15.453125 0 "/>
</g>
<g id="glyph-0-3">
<path d="M 14.296875 0 L 7.03125 0 L 7.03125 -62.8125 L 14.296875 -62.8125 Z M 14.296875 0 "/>
</g>
<g id="glyph-0-4">
<path d="M 24.875 -59 C 32.257812 -59 37.835938 -57.910156 41.609375 -55.734375 C 45.378906 -53.566406 47.265625 -49.78125 47.265625 -44.375 C 47.265625 -40.90625 46.300781 -38.023438 44.375 -35.734375 C 42.445312 -33.453125 39.664062 -31.984375 36.03125 -31.328125 L 36.03125 -30.90625 C 38.507812 -30.519531 40.753906 -29.800781 42.765625 -28.75 C 44.773438 -27.707031 46.359375 -26.222656 47.515625 -24.296875 C 48.671875 -22.367188 49.25 -19.863281 49.25 -16.78125 C 49.25 -11.4375 47.414062 -7.300781 43.75 -4.375 C 40.09375 -1.457031 35.097656 0 28.765625 0 L 8.015625 0 L 8.015625 -59 Z M 26.359375 -33.875 C 31.429688 -33.875 34.898438 -34.6875 36.765625 -36.3125 C 38.640625 -37.945312 39.578125 -40.359375 39.578125 -43.546875 C 39.578125 -46.796875 38.429688 -49.125 36.140625 -50.53125 C 33.859375 -51.9375 30.210938 -52.640625 25.203125 -52.640625 L 15.453125 -52.640625 L 15.453125 -33.875 Z M 15.453125 -27.6875 L 15.453125 -6.28125 L 27.359375 -6.28125 C 32.585938 -6.28125 36.222656 -7.296875 38.265625 -9.328125 C 40.304688 -11.367188 41.328125 -14.046875 41.328125 -17.359375 C 41.328125 -20.441406 40.265625 -22.929688 38.140625 -24.828125 C 36.015625 -26.734375 32.226562 -27.6875 26.78125 -27.6875 Z M 15.453125 -27.6875 "/>
</g>
<g id="glyph-0-5">
<path d="M 27.6875 -45.125 C 28.507812 -45.125 29.398438 -45.082031 30.359375 -45 C 31.328125 -44.914062 32.171875 -44.789062 32.890625 -44.625 L 31.984375 -37.9375 C 31.265625 -38.101562 30.476562 -38.238281 29.625 -38.34375 C 28.769531 -38.457031 27.957031 -38.515625 27.1875 -38.515625 C 24.925781 -38.515625 22.800781 -37.894531 20.8125 -36.65625 C 18.832031 -35.414062 17.25 -33.675781 16.0625 -31.4375 C 14.882812 -29.207031 14.296875 -26.609375 14.296875 -23.640625 L 14.296875 0 L 7.03125 0 L 7.03125 -44.296875 L 12.96875 -44.296875 L 13.796875 -36.203125 L 14.125 -36.203125 C 15.5625 -38.617188 17.410156 -40.707031 19.671875 -42.46875 C 21.929688 -44.238281 24.601562 -45.125 27.6875 -45.125 Z M 27.6875 -45.125 "/>
</g>
<g id="glyph-0-6">
<path d="M 53.140625 0 L 45.703125 0 L 45.703125 -27.515625 L 15.453125 -27.515625 L 15.453125 0 L 8.015625 0 L 8.015625 -59 L 15.453125 -59 L 15.453125 -34.046875 L 45.703125 -34.046875 L 45.703125 -59 L 53.140625 -59 Z M 53.140625 0 "/>
</g>
</g>
</defs>
<path fill="none" stroke-width="0.0416667" stroke-linecap="butt" stroke-linejoin="miter" stroke="rgb(0%, 0%, 0%)" stroke-opacity="1" stroke-miterlimit="10" d="M 1.702501 0.866022 L 1.297499 0.866022 " transform="matrix(119, 0, 0, 119, 23.964844, 36.78711)"/>
<path fill="none" stroke-width="0.0416667" stroke-linecap="butt" stroke-linejoin="miter" stroke="rgb(0%, 0%, 0%)" stroke-opacity="1" stroke-miterlimit="10" d="M 0.784204 1.239808 L 0.70086 1.384142 " transform="matrix(119, 0, 0, 119, 23.964844, 36.78711)"/>
<path fill="none" stroke-width="0.0416667" stroke-linecap="butt" stroke-linejoin="miter" stroke="rgb(0%, 0%, 0%)" stroke-opacity="1" stroke-miterlimit="10" d="M 0.784204 0.492237 L 0.70086 0.347902 " transform="matrix(119, 0, 0, 119, 23.964844, 36.78711)"/>
<path fill="none" stroke-width="0.0416667" stroke-linecap="butt" stroke-linejoin="miter" stroke="rgb(0%, 0%, 0%)" stroke-opacity="1" stroke-miterlimit="10" d="M 0.702501 0.866022 L 0.248556 0.866022 " transform="matrix(119, 0, 0, 119, 23.964844, 36.78711)"/>
<path fill="none" stroke-width="0.0416667" stroke-linecap="butt" stroke-linejoin="miter" stroke="rgb(0%, 0%, 0%)" stroke-opacity="1" stroke-miterlimit="10" d="M 2.197939 1.208853 L 2.281283 1.35322 " transform="matrix(119, 0, 0, 119, 23.964844, 36.78711)"/>
<path fill="none" stroke-width="0.0416667" stroke-linecap="butt" stroke-linejoin="miter" stroke="rgb(0%, 0%, 0%)" stroke-opacity="1" stroke-miterlimit="10" d="M 2.202206 0.515773 L 2.28555 0.371438 " transform="matrix(119, 0, 0, 119, 23.964844, 36.78711)"/>
<path fill="none" stroke-width="0.0416667" stroke-linecap="butt" stroke-linejoin="miter" stroke="rgb(0%, 0%, 0%)" stroke-opacity="1" stroke-miterlimit="10" d="M 2.297499 0.866022 L 2.7004 0.866022 " transform="matrix(119, 0, 0, 119, 23.964844, 36.78711)"/>
<g fill="rgb(0%, 0%, 0%)" fill-opacity="1">
<use xlink:href="#glyph-0-1" x="234.613281" y="169.347656"/>
</g>
<g fill="rgb(0%, 0%, 0%)" fill-opacity="1">
<use xlink:href="#glyph-0-1" x="115.613281" y="169.347656"/>
</g>
<g fill="rgb(0%, 0%, 0%)" fill-opacity="1">
<use xlink:href="#glyph-0-2" x="58.960938" y="272.402344"/>
</g>
<g fill="rgb(0%, 0%, 0%)" fill-opacity="1">
<use xlink:href="#glyph-0-2" x="58.960938" y="66.289062"/>
</g>
<g fill="rgb(0%, 0%, 0%)" fill-opacity="1">
<use xlink:href="#glyph-0-2" x="-0.539063" y="169.34375"/>
</g>
<g fill="rgb(0%, 0%, 0%)" fill-opacity="1">
<use xlink:href="#glyph-0-1" x="285.683594" y="273.890625"/>
<use xlink:href="#glyph-0-3" x="337.911379" y="273.890625"/>
</g>
<g fill="rgb(0%, 0%, 0%)" fill-opacity="1">
<use xlink:href="#glyph-0-4" x="274.152344" y="66.289062"/>
<use xlink:href="#glyph-0-5" x="327.867629" y="66.289062"/>
</g>
<g fill="rgb(0%, 0%, 0%)" fill-opacity="1">
<use xlink:href="#glyph-0-6" x="350.386719" y="169.34375"/>
</g>
</svg>
